<svg xmlns="http://www.w3.org/2000/svg" viewBox="0 0 1920 1080" preserveAspectRatio="xMidYMid slice"><defs><linearGradient id="s" x1="0" y1="0" x2="0" y2="1"><stop offset="0" stop-color="#1a2a4d"/><stop offset=".55" stop-color="#8d5f5a"/><stop offset=".82" stop-color="#f0b768"/><stop offset="1" stop-color="#ffd98a"/></linearGradient><radialGradient id="sun" cx=".78" cy=".72" r=".3"><stop offset="0" stop-color="#fff0c2"/><stop offset=".3" stop-color="#ffd98a" stop-opacity=".7"/><stop offset="1" stop-color="#ffd98a" stop-opacity="0"/></radialGradient></defs>
<rect width="1920" height="1080" fill="url(#s)"/><rect width="1920" height="1080" fill="url(#sun)"/>
<circle cx="487" cy="151" r="1.4" fill="#fff" opacity="0.27"/>
<circle cx="1875" cy="154" r="1" fill="#fff" opacity="0.54"/>
<circle cx="134" cy="155" r="0.8" fill="#fff" opacity="0.70"/>
<circle cx="960" cy="66" r="1.4" fill="#fff" opacity="0.33"/>
<circle cx="1468" cy="120" r="1.4" fill="#fff" opacity="0.66"/>
<circle cx="975" cy="101" r="1.4" fill="#fff" opacity="0.67"/>
<circle cx="474" cy="162" r="0.8" fill="#fff" opacity="0.68"/>
<circle cx="1071" cy="99" r="1.4" fill="#fff" opacity="0.21"/>
<circle cx="1591" cy="16" r="0.8" fill="#fff" opacity="0.62"/>
<circle cx="1210" cy="10" r="1" fill="#fff" opacity="0.63"/>
<circle cx="1686" cy="68" r="1" fill="#fff" opacity="0.53"/>
<circle cx="1884" cy="99" r="1.4" fill="#fff" opacity="0.63"/>
<circle cx="874" cy="101" r="1.4" fill="#fff" opacity="0.64"/>
<circle cx="910" cy="34" r="1" fill="#fff" opacity="0.25"/>
<circle cx="278" cy="126" r="0.8" fill="#fff" opacity="0.34"/>
<circle cx="1376" cy="111" r="1.4" fill="#fff" opacity="0.67"/>
<circle cx="862" cy="129" r="1" fill="#fff" opacity="0.52"/>
<circle cx="1093" cy="149" r="1" fill="#fff" opacity="0.52"/>
<circle cx="1851" cy="86" r="1.4" fill="#fff" opacity="0.70"/>
<circle cx="58" cy="71" r="1.4" fill="#fff" opacity="0.57"/>
<circle cx="334" cy="178" r="1" fill="#fff" opacity="0.73"/>
<circle cx="1852" cy="146" r="1.4" fill="#fff" opacity="0.26"/>
<circle cx="1342" cy="54" r="1.4" fill="#fff" opacity="0.66"/>
<circle cx="1174" cy="68" r="1" fill="#fff" opacity="0.27"/>
<circle cx="987" cy="163" r="1" fill="#fff" opacity="0.25"/>
<circle cx="1639" cy="17" r="1" fill="#fff" opacity="0.69"/>
<circle cx="41" cy="75" r="1" fill="#fff" opacity="0.62"/>
<circle cx="1787" cy="30" r="0.8" fill="#fff" opacity="0.53"/>
<circle cx="1559" cy="11" r="1" fill="#fff" opacity="0.60"/>
<circle cx="677" cy="141" r="1" fill="#fff" opacity="0.48"/>
<path d="M0 760 Q300 690 600 740 T1200 730 T1920 720 V820 H0Z" fill="#5a3f4a" opacity=".7"/>
<rect y="820" width="1920" height="260" fill="#151217"/>
<path d="M0 900H1920" stroke="#cda658" stroke-width="3" stroke-dasharray="60 40" opacity=".6"/>
<g transform="translate(340,124) scale(.85)">
<g fill="#0d0b10">
<rect x="1330" y="774" width="300" height="46" rx="22"/>
<rect x="1370" y="702" width="200" height="72"/><rect x="1380" y="630" width="110" height="80"/>
</g>
<rect x="1392" y="642" width="86" height="54" fill="#ffd98a" opacity=".8"/>
<g stroke="#0d0b10" stroke-width="22" fill="none" stroke-linecap="round" stroke-linejoin="round"><path d="M1540 710 L1670 490 L1850 570"/></g>
<path d="M1850 558 l50 30 l-50 60 l-20 -40z" fill="#0d0b10"/>
<g stroke="#0d0b10" stroke-width="10"><path d="M1560 720 L1660 560"/></g>
</g><g transform="translate(560,124) scale(.78)">
<rect x="520" y="630" width="470" height="150" fill="#ad5140"/>
<path d="M567 634V776" stroke="#7d3b2e" stroke-width="4"/>
<path d="M614 634V776" stroke="#7d3b2e" stroke-width="4"/>
<path d="M661 634V776" stroke="#7d3b2e" stroke-width="4"/>
<path d="M708 634V776" stroke="#7d3b2e" stroke-width="4"/>
<path d="M755 634V776" stroke="#7d3b2e" stroke-width="4"/>
<path d="M802 634V776" stroke="#7d3b2e" stroke-width="4"/>
<path d="M849 634V776" stroke="#7d3b2e" stroke-width="4"/>
<path d="M896 634V776" stroke="#7d3b2e" stroke-width="4"/>
<path d="M943 634V776" stroke="#7d3b2e" stroke-width="4"/>
<rect x="500" y="778" width="520" height="16" fill="#0d0b10"/>
<path d="M1020 778V690H1120L1170 740V778Z" fill="#0d0b10"/>
<path d="M1040 702H1110L1146 736H1040Z" fill="#ffd98a" opacity=".65"/>
<circle cx="560" cy="804" r="32" fill="#0d0b10"/><circle cx="560" cy="804" r="12" fill="#3a3540"/>
<circle cx="640" cy="804" r="32" fill="#0d0b10"/><circle cx="640" cy="804" r="12" fill="#3a3540"/>
<circle cx="950" cy="804" r="32" fill="#0d0b10"/><circle cx="950" cy="804" r="12" fill="#3a3540"/>
<circle cx="1080" cy="804" r="32" fill="#0d0b10"/><circle cx="1080" cy="804" r="12" fill="#3a3540"/>
</g>
<path d="M300 300q14 -14 28 0q14 -14 28 0" stroke="#1a1620" stroke-width="3" fill="none"/>
<path d="M360 260q14 -14 28 0q14 -14 28 0" stroke="#1a1620" stroke-width="3" fill="none"/>
<path d="M420 320q14 -14 28 0q14 -14 28 0" stroke="#1a1620" stroke-width="3" fill="none"/>
</svg>