<svg xmlns="http://www.w3.org/2000/svg" viewBox="0 0 1920 1080" preserveAspectRatio="xMidYMid slice"><defs><linearGradient id="s" x1="0" y1="0" x2="0" y2="1"><stop offset="0" stop-color="#3a2b5c"/><stop offset=".45" stop-color="#c8626a"/><stop offset=".78" stop-color="#ffb35e"/><stop offset="1" stop-color="#ffe0a0"/></linearGradient><radialGradient id="sun" cx=".3" cy=".72" r=".32"><stop offset="0" stop-color="#fff5cf"/><stop offset=".35" stop-color="#ffd07a" stop-opacity=".75"/><stop offset="1" stop-color="#ffd07a" stop-opacity="0"/></radialGradient></defs>
<rect width="1920" height="1080" fill="url(#s)"/><rect width="1920" height="1080" fill="url(#sun)"/>
<circle cx="576" cy="780" r="70" fill="#fff5cf"/>
<ellipse cx="300" cy="240" rx="150.0" ry="16" fill="#ffd7b0" opacity=".28"/><ellipse cx="360" cy="262" rx="100.0" ry="12" fill="#ffd7b0" opacity=".2"/>
<ellipse cx="900" cy="180" rx="180.0" ry="16" fill="#ffd7b0" opacity=".28"/><ellipse cx="960" cy="202" rx="120.0" ry="12" fill="#ffd7b0" opacity=".2"/>
<ellipse cx="1500" cy="300" rx="150.0" ry="16" fill="#ffd7b0" opacity=".28"/><ellipse cx="1560" cy="322" rx="100.0" ry="12" fill="#ffd7b0" opacity=".2"/>
<ellipse cx="1750" cy="150" rx="120.0" ry="16" fill="#ffd7b0" opacity=".28"/><ellipse cx="1810" cy="172" rx="80.0" ry="12" fill="#ffd7b0" opacity=".2"/>
<rect y="820" width="1920" height="260" fill="#20121a"/>
<rect x="980" y="560" width="240" height="260" fill="#1b1018"/>
<rect x="970" y="546" width="260" height="16" fill="#120a11"/>
<rect x="988" y="570" width="14" height="20" fill="#ffcf7a" opacity="0.82"/>
<rect x="1040" y="570" width="14" height="20" fill="#ffcf7a" opacity="0.62"/>
<rect x="1066" y="570" width="14" height="20" fill="#ffcf7a" opacity="0.71"/>
<rect x="1118" y="570" width="14" height="20" fill="#ffcf7a" opacity="0.37"/>
<rect x="1170" y="570" width="14" height="20" fill="#ffcf7a" opacity="0.77"/>
<rect x="1196" y="570" width="14" height="20" fill="#ffcf7a" opacity="0.59"/>
<rect x="1014" y="600" width="14" height="20" fill="#ffcf7a" opacity="0.87"/>
<rect x="1066" y="600" width="14" height="20" fill="#ffcf7a" opacity="0.36"/>
<rect x="1092" y="600" width="14" height="20" fill="#ffcf7a" opacity="0.87"/>
<rect x="1118" y="600" width="14" height="20" fill="#ffcf7a" opacity="0.47"/>
<rect x="1144" y="600" width="14" height="20" fill="#ffcf7a" opacity="0.37"/>
<rect x="1170" y="600" width="14" height="20" fill="#ffcf7a" opacity="0.59"/>
<rect x="1196" y="600" width="14" height="20" fill="#ffcf7a" opacity="0.48"/>
<rect x="988" y="630" width="14" height="20" fill="#ffcf7a" opacity="0.47"/>
<rect x="1014" y="630" width="14" height="20" fill="#ffcf7a" opacity="0.51"/>
<rect x="1040" y="630" width="14" height="20" fill="#ffcf7a" opacity="0.81"/>
<rect x="1118" y="630" width="14" height="20" fill="#ffcf7a" opacity="0.90"/>
<rect x="1170" y="630" width="14" height="20" fill="#ffcf7a" opacity="0.53"/>
<rect x="1040" y="660" width="14" height="20" fill="#ffcf7a" opacity="0.81"/>
<rect x="1092" y="660" width="14" height="20" fill="#ffcf7a" opacity="0.67"/>
<rect x="1170" y="660" width="14" height="20" fill="#ffcf7a" opacity="0.67"/>
<rect x="1196" y="660" width="14" height="20" fill="#ffcf7a" opacity="0.48"/>
<rect x="1014" y="690" width="14" height="20" fill="#ffcf7a" opacity="0.45"/>
<rect x="1040" y="690" width="14" height="20" fill="#ffcf7a" opacity="0.74"/>
<rect x="1092" y="690" width="14" height="20" fill="#ffcf7a" opacity="0.59"/>
<rect x="1118" y="690" width="14" height="20" fill="#ffcf7a" opacity="0.78"/>
<rect x="1144" y="690" width="14" height="20" fill="#ffcf7a" opacity="0.57"/>
<rect x="1170" y="690" width="14" height="20" fill="#ffcf7a" opacity="0.37"/>
<rect x="1196" y="690" width="14" height="20" fill="#ffcf7a" opacity="0.74"/>
<rect x="1040" y="720" width="14" height="20" fill="#ffcf7a" opacity="0.44"/>
<rect x="1066" y="720" width="14" height="20" fill="#ffcf7a" opacity="0.89"/>
<rect x="1118" y="720" width="14" height="20" fill="#ffcf7a" opacity="0.82"/>
<rect x="1144" y="720" width="14" height="20" fill="#ffcf7a" opacity="0.63"/>
<rect x="988" y="750" width="14" height="20" fill="#ffcf7a" opacity="0.50"/>
<rect x="1014" y="750" width="14" height="20" fill="#ffcf7a" opacity="0.88"/>
<rect x="1040" y="750" width="14" height="20" fill="#ffcf7a" opacity="0.78"/>
<rect x="1170" y="750" width="14" height="20" fill="#ffcf7a" opacity="0.66"/>
<rect x="1196" y="750" width="14" height="20" fill="#ffcf7a" opacity="0.38"/>
<rect x="1040" y="780" width="14" height="20" fill="#ffcf7a" opacity="0.63"/>
<rect x="1066" y="780" width="14" height="20" fill="#ffcf7a" opacity="0.55"/>
<rect x="1092" y="780" width="14" height="20" fill="#ffcf7a" opacity="0.65"/>
<rect x="1170" y="780" width="14" height="20" fill="#ffcf7a" opacity="0.37"/>
<rect x="1196" y="780" width="14" height="20" fill="#ffcf7a" opacity="0.45"/>
<rect x="1084.0" y="774" width="32" height="46" fill="#ffcf7a" opacity=".75"/>
<rect x="1250" y="620" width="220" height="200" fill="#1b1018"/>
<path d="M1236 620L1360.0 550L1484 620Z" fill="#120a11"/>
<rect x="1310" y="630" width="14" height="20" fill="#ffcf7a" opacity="0.40"/>
<rect x="1414" y="630" width="14" height="20" fill="#ffcf7a" opacity="0.68"/>
<rect x="1284" y="660" width="14" height="20" fill="#ffcf7a" opacity="0.59"/>
<rect x="1310" y="660" width="14" height="20" fill="#ffcf7a" opacity="0.75"/>
<rect x="1388" y="660" width="14" height="20" fill="#ffcf7a" opacity="0.59"/>
<rect x="1414" y="660" width="14" height="20" fill="#ffcf7a" opacity="0.37"/>
<rect x="1440" y="660" width="14" height="20" fill="#ffcf7a" opacity="0.61"/>
<rect x="1258" y="690" width="14" height="20" fill="#ffcf7a" opacity="0.56"/>
<rect x="1310" y="690" width="14" height="20" fill="#ffcf7a" opacity="0.66"/>
<rect x="1336" y="690" width="14" height="20" fill="#ffcf7a" opacity="0.36"/>
<rect x="1362" y="690" width="14" height="20" fill="#ffcf7a" opacity="0.43"/>
<rect x="1388" y="690" width="14" height="20" fill="#ffcf7a" opacity="0.90"/>
<rect x="1440" y="690" width="14" height="20" fill="#ffcf7a" opacity="0.84"/>
<rect x="1388" y="720" width="14" height="20" fill="#ffcf7a" opacity="0.89"/>
<rect x="1440" y="720" width="14" height="20" fill="#ffcf7a" opacity="0.76"/>
<rect x="1284" y="750" width="14" height="20" fill="#ffcf7a" opacity="0.64"/>
<rect x="1310" y="750" width="14" height="20" fill="#ffcf7a" opacity="0.86"/>
<rect x="1336" y="750" width="14" height="20" fill="#ffcf7a" opacity="0.81"/>
<rect x="1362" y="750" width="14" height="20" fill="#ffcf7a" opacity="0.84"/>
<rect x="1414" y="750" width="14" height="20" fill="#ffcf7a" opacity="0.66"/>
<rect x="1284" y="780" width="14" height="20" fill="#ffcf7a" opacity="0.47"/>
<rect x="1310" y="780" width="14" height="20" fill="#ffcf7a" opacity="0.73"/>
<rect x="1336" y="780" width="14" height="20" fill="#ffcf7a" opacity="0.85"/>
<rect x="1362" y="780" width="14" height="20" fill="#ffcf7a" opacity="0.85"/>
<rect x="1388" y="780" width="14" height="20" fill="#ffcf7a" opacity="0.88"/>
<rect x="1440" y="780" width="14" height="20" fill="#ffcf7a" opacity="0.63"/>
<rect x="1344.0" y="774" width="32" height="46" fill="#ffcf7a" opacity=".75"/>
<rect x="1500" y="520" width="260" height="300" fill="#1b1018"/>
<rect x="1490" y="506" width="280" height="16" fill="#120a11"/>
<rect x="1508" y="530" width="14" height="20" fill="#ffcf7a" opacity="0.65"/>
<rect x="1534" y="530" width="14" height="20" fill="#ffcf7a" opacity="0.68"/>
<rect x="1586" y="530" width="14" height="20" fill="#ffcf7a" opacity="0.36"/>
<rect x="1638" y="530" width="14" height="20" fill="#ffcf7a" opacity="0.48"/>
<rect x="1690" y="530" width="14" height="20" fill="#ffcf7a" opacity="0.81"/>
<rect x="1716" y="530" width="14" height="20" fill="#ffcf7a" opacity="0.70"/>
<rect x="1742" y="530" width="14" height="20" fill="#ffcf7a" opacity="0.70"/>
<rect x="1534" y="560" width="14" height="20" fill="#ffcf7a" opacity="0.76"/>
<rect x="1586" y="560" width="14" height="20" fill="#ffcf7a" opacity="0.77"/>
<rect x="1638" y="560" width="14" height="20" fill="#ffcf7a" opacity="0.37"/>
<rect x="1690" y="560" width="14" height="20" fill="#ffcf7a" opacity="0.75"/>
<rect x="1534" y="590" width="14" height="20" fill="#ffcf7a" opacity="0.79"/>
<rect x="1560" y="590" width="14" height="20" fill="#ffcf7a" opacity="0.86"/>
<rect x="1612" y="590" width="14" height="20" fill="#ffcf7a" opacity="0.42"/>
<rect x="1638" y="590" width="14" height="20" fill="#ffcf7a" opacity="0.88"/>
<rect x="1664" y="590" width="14" height="20" fill="#ffcf7a" opacity="0.69"/>
<rect x="1690" y="590" width="14" height="20" fill="#ffcf7a" opacity="0.63"/>
<rect x="1716" y="590" width="14" height="20" fill="#ffcf7a" opacity="0.54"/>
<rect x="1690" y="620" width="14" height="20" fill="#ffcf7a" opacity="0.82"/>
<rect x="1560" y="650" width="14" height="20" fill="#ffcf7a" opacity="0.81"/>
<rect x="1612" y="650" width="14" height="20" fill="#ffcf7a" opacity="0.38"/>
<rect x="1690" y="650" width="14" height="20" fill="#ffcf7a" opacity="0.79"/>
<rect x="1716" y="650" width="14" height="20" fill="#ffcf7a" opacity="0.43"/>
<rect x="1742" y="650" width="14" height="20" fill="#ffcf7a" opacity="0.77"/>
<rect x="1534" y="680" width="14" height="20" fill="#ffcf7a" opacity="0.69"/>
<rect x="1560" y="680" width="14" height="20" fill="#ffcf7a" opacity="0.75"/>
<rect x="1586" y="680" width="14" height="20" fill="#ffcf7a" opacity="0.83"/>
<rect x="1638" y="680" width="14" height="20" fill="#ffcf7a" opacity="0.90"/>
<rect x="1664" y="680" width="14" height="20" fill="#ffcf7a" opacity="0.39"/>
<rect x="1716" y="680" width="14" height="20" fill="#ffcf7a" opacity="0.46"/>
<rect x="1742" y="680" width="14" height="20" fill="#ffcf7a" opacity="0.69"/>
<rect x="1508" y="710" width="14" height="20" fill="#ffcf7a" opacity="0.37"/>
<rect x="1560" y="710" width="14" height="20" fill="#ffcf7a" opacity="0.88"/>
<rect x="1612" y="710" width="14" height="20" fill="#ffcf7a" opacity="0.60"/>
<rect x="1638" y="710" width="14" height="20" fill="#ffcf7a" opacity="0.70"/>
<rect x="1508" y="740" width="14" height="20" fill="#ffcf7a" opacity="0.59"/>
<rect x="1560" y="740" width="14" height="20" fill="#ffcf7a" opacity="0.52"/>
<rect x="1612" y="740" width="14" height="20" fill="#ffcf7a" opacity="0.65"/>
<rect x="1638" y="740" width="14" height="20" fill="#ffcf7a" opacity="0.58"/>
<rect x="1690" y="740" width="14" height="20" fill="#ffcf7a" opacity="0.69"/>
<rect x="1742" y="740" width="14" height="20" fill="#ffcf7a" opacity="0.70"/>
<rect x="1508" y="770" width="14" height="20" fill="#ffcf7a" opacity="0.72"/>
<rect x="1534" y="770" width="14" height="20" fill="#ffcf7a" opacity="0.74"/>
<rect x="1586" y="770" width="14" height="20" fill="#ffcf7a" opacity="0.38"/>
<rect x="1664" y="770" width="14" height="20" fill="#ffcf7a" opacity="0.60"/>
<rect x="1716" y="770" width="14" height="20" fill="#ffcf7a" opacity="0.55"/>
<rect x="1742" y="770" width="14" height="20" fill="#ffcf7a" opacity="0.55"/>
<rect x="1534" y="800" width="14" height="20" fill="#ffcf7a" opacity="0.56"/>
<rect x="1586" y="800" width="14" height="20" fill="#ffcf7a" opacity="0.66"/>
<rect x="1638" y="800" width="14" height="20" fill="#ffcf7a" opacity="0.47"/>
<rect x="1690" y="800" width="14" height="20" fill="#ffcf7a" opacity="0.45"/>
<rect x="1716" y="800" width="14" height="20" fill="#ffcf7a" opacity="0.73"/>
<rect x="1742" y="800" width="14" height="20" fill="#ffcf7a" opacity="0.53"/>
<rect x="1614.0" y="774" width="32" height="46" fill="#ffcf7a" opacity=".75"/>
<rect x="1800" y="600" width="200" height="220" fill="#1b1018"/>
<path d="M1786 600L1900.0 530L2014 600Z" fill="#120a11"/>
<rect x="1808" y="610" width="14" height="20" fill="#ffcf7a" opacity="0.41"/>
<rect x="1834" y="610" width="14" height="20" fill="#ffcf7a" opacity="0.44"/>
<rect x="1860" y="610" width="14" height="20" fill="#ffcf7a" opacity="0.57"/>
<rect x="1964" y="610" width="14" height="20" fill="#ffcf7a" opacity="0.65"/>
<rect x="1808" y="640" width="14" height="20" fill="#ffcf7a" opacity="0.44"/>
<rect x="1834" y="640" width="14" height="20" fill="#ffcf7a" opacity="0.47"/>
<rect x="1964" y="640" width="14" height="20" fill="#ffcf7a" opacity="0.52"/>
<rect x="1912" y="670" width="14" height="20" fill="#ffcf7a" opacity="0.68"/>
<rect x="1964" y="670" width="14" height="20" fill="#ffcf7a" opacity="0.45"/>
<rect x="1808" y="700" width="14" height="20" fill="#ffcf7a" opacity="0.40"/>
<rect x="1886" y="700" width="14" height="20" fill="#ffcf7a" opacity="0.52"/>
<rect x="1834" y="730" width="14" height="20" fill="#ffcf7a" opacity="0.58"/>
<rect x="1886" y="730" width="14" height="20" fill="#ffcf7a" opacity="0.44"/>
<rect x="1912" y="730" width="14" height="20" fill="#ffcf7a" opacity="0.80"/>
<rect x="1938" y="730" width="14" height="20" fill="#ffcf7a" opacity="0.38"/>
<rect x="1808" y="760" width="14" height="20" fill="#ffcf7a" opacity="0.64"/>
<rect x="1834" y="760" width="14" height="20" fill="#ffcf7a" opacity="0.54"/>
<rect x="1886" y="760" width="14" height="20" fill="#ffcf7a" opacity="0.58"/>
<rect x="1912" y="760" width="14" height="20" fill="#ffcf7a" opacity="0.70"/>
<rect x="1938" y="760" width="14" height="20" fill="#ffcf7a" opacity="0.55"/>
<rect x="1808" y="790" width="14" height="20" fill="#ffcf7a" opacity="0.66"/>
<rect x="1860" y="790" width="14" height="20" fill="#ffcf7a" opacity="0.38"/>
<rect x="1886" y="790" width="14" height="20" fill="#ffcf7a" opacity="0.77"/>
<rect x="1938" y="790" width="14" height="20" fill="#ffcf7a" opacity="0.53"/>
<rect x="1964" y="790" width="14" height="20" fill="#ffcf7a" opacity="0.60"/>
<rect x="1884.0" y="774" width="32" height="46" fill="#ffcf7a" opacity=".75"/>
<rect x="760" y="650" width="180" height="170" fill="#1b1018"/>
<path d="M746 650L850.0 580L954 650Z" fill="#120a11"/>
<rect x="924" y="660" width="14" height="20" fill="#ffcf7a" opacity="0.61"/>
<rect x="846" y="690" width="14" height="20" fill="#ffcf7a" opacity="0.61"/>
<rect x="872" y="690" width="14" height="20" fill="#ffcf7a" opacity="0.65"/>
<rect x="924" y="690" width="14" height="20" fill="#ffcf7a" opacity="0.47"/>
<rect x="768" y="720" width="14" height="20" fill="#ffcf7a" opacity="0.85"/>
<rect x="820" y="720" width="14" height="20" fill="#ffcf7a" opacity="0.79"/>
<rect x="846" y="720" width="14" height="20" fill="#ffcf7a" opacity="0.69"/>
<rect x="872" y="720" width="14" height="20" fill="#ffcf7a" opacity="0.35"/>
<rect x="924" y="720" width="14" height="20" fill="#ffcf7a" opacity="0.47"/>
<rect x="820" y="750" width="14" height="20" fill="#ffcf7a" opacity="0.88"/>
<rect x="846" y="750" width="14" height="20" fill="#ffcf7a" opacity="0.72"/>
<rect x="872" y="750" width="14" height="20" fill="#ffcf7a" opacity="0.87"/>
<rect x="794" y="780" width="14" height="20" fill="#ffcf7a" opacity="0.55"/>
<rect x="820" y="780" width="14" height="20" fill="#ffcf7a" opacity="0.43"/>
<rect x="846" y="780" width="14" height="20" fill="#ffcf7a" opacity="0.52"/>
<rect x="898" y="780" width="14" height="20" fill="#ffcf7a" opacity="0.72"/>
<rect x="924" y="780" width="14" height="20" fill="#ffcf7a" opacity="0.52"/>
<rect x="834.0" y="774" width="32" height="46" fill="#ffcf7a" opacity=".75"/>
<rect x="1040" y="860" width="320" height="10" fill="#cda658" opacity=".8"/>
<path d="M120 1060C144.0 880.0 135.0 730.0 171.0 610.0" stroke="#0f0810" stroke-width="13.5" fill="none"/>
<path d="M171.0 610.0Q74.98124408130971 520.0 -21.037511837380578 654.3716640099763" stroke="#0f0810" stroke-width="9.0" fill="none" stroke-linecap="round"/>
<path d="M171.0 610.0Q96.31066679589965 520.0 21.6213335917993 612.1491151282114" stroke="#0f0810" stroke-width="9.0" fill="none" stroke-linecap="round"/>
<path d="M171.0 610.0Q137.6530360257473 520.0 104.3060720514946 585.4276641292682" stroke="#0f0810" stroke-width="9.0" fill="none" stroke-linecap="round"/>
<path d="M171.0 610.0Q187.9306973225257 520.0 204.86139464505143 581.3673022289013" stroke="#0f0810" stroke-width="9.0" fill="none" stroke-linecap="round"/>
<path d="M171.0 610.0Q233.6717919444376 520.0 296.3435838888752 601.056000119292" stroke="#0f0810" stroke-width="9.0" fill="none" stroke-linecap="round"/>
<path d="M171.0 610.0Q262.62003052662607 520.0 354.24006105325213 639.2181871006898" stroke="#0f0810" stroke-width="9.0" fill="none" stroke-linecap="round"/>
<path d="M171.0 610.0Q267.0187559186903 520.0 363.0375118373806 685.6283359900237" stroke="#0f0810" stroke-width="9.0" fill="none" stroke-linecap="round"/>
<path d="M171.0 610.0Q255.43747686898277 520.0 339.87495373796554 715.0" stroke="#0f0810" stroke-width="9.0" fill="none" stroke-linecap="round"/>
<path d="M420 1000C402.4 868.0 409.0 758.0 382.6 670.0" stroke="#0f0810" stroke-width="9.9" fill="none"/>
<path d="M382.6 670.0Q312.18624565962716 604.0 241.77249131925424 702.5392202739826" stroke="#0f0810" stroke-width="6.6000000000000005" fill="none" stroke-linecap="round"/>
<path d="M382.6 670.0Q327.8278223169931 604.0 273.05564463398616 671.5760177606884" stroke="#0f0810" stroke-width="6.6000000000000005" fill="none" stroke-linecap="round"/>
<path d="M382.6 670.0Q358.1455597522147 604.0 333.69111950442937 651.9802870281301" stroke="#0f0810" stroke-width="6.6000000000000005" fill="none" stroke-linecap="round"/>
<path d="M382.6 670.0Q395.0158447031855 604.0 407.43168940637105 649.0026883011942" stroke="#0f0810" stroke-width="6.6000000000000005" fill="none" stroke-linecap="round"/>
<path d="M382.6 670.0Q428.55931409258756 604.0 474.51862818517515 663.4410667541474" stroke="#0f0810" stroke-width="6.6000000000000005" fill="none" stroke-linecap="round"/>
<path d="M382.6 670.0Q449.7880223861925 604.0 516.976044772385 691.4266705405058" stroke="#0f0810" stroke-width="6.6000000000000005" fill="none" stroke-linecap="round"/>
<path d="M382.6 670.0Q453.01375434037294 604.0 523.4275086807459 725.4607797260174" stroke="#0f0810" stroke-width="6.6000000000000005" fill="none" stroke-linecap="round"/>
<path d="M382.6 670.0Q444.5208163705874 604.0 506.4416327411748 747.0" stroke="#0f0810" stroke-width="6.6000000000000005" fill="none" stroke-linecap="round"/>
<path d="M1180 1040C1197.6 908.0 1191.0 798.0 1217.4 710.0" stroke="#0f0810" stroke-width="9.9" fill="none"/>
<path d="M1217.4 710.0Q1146.9862456596272 644.0 1076.5724913192544 742.5392202739826" stroke="#0f0810" stroke-width="6.6000000000000005" fill="none" stroke-linecap="round"/>
<path d="M1217.4 710.0Q1162.6278223169932 644.0 1107.8556446339862 711.5760177606884" stroke="#0f0810" stroke-width="6.6000000000000005" fill="none" stroke-linecap="round"/>
<path d="M1217.4 710.0Q1192.9455597522146 644.0 1168.4911195044294 691.9802870281301" stroke="#0f0810" stroke-width="6.6000000000000005" fill="none" stroke-linecap="round"/>
<path d="M1217.4 710.0Q1229.8158447031856 644.0 1242.231689406371 689.0026883011942" stroke="#0f0810" stroke-width="6.6000000000000005" fill="none" stroke-linecap="round"/>
<path d="M1217.4 710.0Q1263.3593140925877 644.0 1309.3186281851752 703.4410667541474" stroke="#0f0810" stroke-width="6.6000000000000005" fill="none" stroke-linecap="round"/>
<path d="M1217.4 710.0Q1284.5880223861925 644.0 1351.776044772385 731.4266705405058" stroke="#0f0810" stroke-width="6.6000000000000005" fill="none" stroke-linecap="round"/>
<path d="M1217.4 710.0Q1287.813754340373 644.0 1358.2275086807458 765.4607797260174" stroke="#0f0810" stroke-width="6.6000000000000005" fill="none" stroke-linecap="round"/>
<path d="M1217.4 710.0Q1279.3208163705874 644.0 1341.2416327411747 787.0" stroke="#0f0810" stroke-width="6.6000000000000005" fill="none" stroke-linecap="round"/>
<path d="M1700 1060C1679.2 904.0 1687.0 774.0 1655.8 670.0" stroke="#0f0810" stroke-width="11.700000000000001" fill="none"/>
<path d="M1655.8 670.0Q1572.5837448704683 592.0 1489.367489740937 708.4554421419795" stroke="#0f0810" stroke-width="7.800000000000001" fill="none" stroke-linecap="round"/>
<path d="M1655.8 670.0Q1591.0692445564464 592.0 1526.3384891128926 671.86256644445" stroke="#0f0810" stroke-width="7.800000000000001" fill="none" stroke-linecap="round"/>
<path d="M1655.8 670.0Q1626.899297888981 592.0 1597.998595777962 648.7039755786991" stroke="#0f0810" stroke-width="7.800000000000001" fill="none" stroke-linecap="round"/>
<path d="M1655.8 670.0Q1670.4732710128555 592.0 1685.1465420257111 645.1849952650477" stroke="#0f0810" stroke-width="7.800000000000001" fill="none" stroke-linecap="round"/>
<path d="M1655.8 670.0Q1710.1155530185124 592.0 1764.431106037025 662.2485334367198" stroke="#0f0810" stroke-width="7.800000000000001" fill="none" stroke-linecap="round"/>
<path d="M1655.8 670.0Q1735.2040264564093 592.0 1814.6080529128185 695.3224288205978" stroke="#0f0810" stroke-width="7.800000000000001" fill="none" stroke-linecap="round"/>
<path d="M1655.8 670.0Q1739.0162551295316 592.0 1822.232510259063 735.5445578580205" stroke="#0f0810" stroke-width="7.800000000000001" fill="none" stroke-linecap="round"/>
<path d="M1655.8 670.0Q1728.979146619785 592.0 1802.1582932395702 761.0" stroke="#0f0810" stroke-width="7.800000000000001" fill="none" stroke-linecap="round"/>
<path d="M0 960H1920" stroke="#3a2530" stroke-width="60"/><path d="M0 960H1920" stroke="#f0cf8a" stroke-width="3" stroke-dasharray="50 40" opacity=".5"/>
<path d="M1100 260q12 -12 24 0q12 -12 24 0" stroke="#3a1c2c" stroke-width="3" fill="none"/>
<path d="M1150 230q12 -12 24 0q12 -12 24 0" stroke="#3a1c2c" stroke-width="3" fill="none"/>
<path d="M1200 270q12 -12 24 0q12 -12 24 0" stroke="#3a1c2c" stroke-width="3" fill="none"/>
<path d="M700 330q12 -12 24 0q12 -12 24 0" stroke="#3a1c2c" stroke-width="3" fill="none"/>
</svg>